# xmcd
#
# Track frame offsets:
#  182
#  13872
#  29142
#  42647
#  57920
#  70360
#  85827
#  97432
#  111032
#  124635
#  138837
#  151517
#  165550
#  182770
#  195785
#  209497
#  223420
#  242105
#  257797
#  273707
#
# Disc length: 3896 seconds
#
# Revision: 0
# Processed by: cddbd v1.4PL0 Copyright (c) Steve Scherf et al.
# Submitted via: AltoMP3_Maker 3.0
#
DISCID=2f0f3614
DTITLE=蔡琴 - 被遗忘的时光
DYEAR=1900
DGENRE=
TTITLE0=被遗忘的时光
TTITLE1=不了情
TTITLE2=情人的眼泪
TTITLE3=绿岛小夜曲
TTITLE4=今宵多珍重
TTITLE5=我有一段情
TTITLE6=梦里相思
TTITLE7=魂萦旧梦
TTITLE8=明月千里寄相思
TTITLE9=月光小夜曲
TTITLE10=神秘女郎
TTITLE11=昨夜你对我一笑
TTITLE12=我的思念
TTITLE13=想你的时候
TTITLE14=再爱我一次
TTITLE15=蓝色的梦
TTITLE16=意难忘
TTITLE17=重相逢
TTITLE18=抉择
TTITLE19=恰似你的温柔
EXTD=
EXTT0=
EXTT1=
EXTT2=
EXTT3=
EXTT4=
EXTT5=
EXTT6=
EXTT7=
EXTT8=
EXTT9=
EXTT10=
EXTT11=
EXTT12=
EXTT13=
EXTT14=
EXTT15=
EXTT16=
EXTT17=
EXTT18=
EXTT19=
PLAYORDER=
